<svg class="main-svg" xmlns="http://www.w3.org/2000/svg" xmlns:xlink="http://www.w3.org/1999/xlink" width="700" height="500" style="" viewBox="0 0 700 500"><rect x="0" y="0" width="700" height="500" style="fill: rgb(255, 255, 255); fill-opacity: 1;"/><defs id="defs-1cb026"><g class="clips"><clipPath id="clip1cb026xyplot" class="plotclip"><rect width="540" height="360"/></clipPath><clipPath class="axesclip" id="clip1cb026x"><rect x="80" y="0" width="540" height="500"/></clipPath><clipPath class="axesclip" id="clip1cb026y"><rect x="0" y="60" width="700" height="360"/></clipPath><clipPath class="axesclip" id="clip1cb026xy"><rect x="80" y="60" width="540" height="360"/></clipPath></g><g class="gradients"/><g class="patterns"/></defs><g class="bglayer"/><g class="layer-below"><g class="imagelayer"/><g class="shapelayer"/></g><g class="cartesianlayer"><g class="subplot xy"><g class="layer-subplot"><g class="shapelayer"/><g class="imagelayer"/></g><g class="minor-gridlayer"><g class="x"/><g class="y"/></g><g class="gridlayer"><g class="x"><path class="xgrid crisp" transform="translate(110.75,0)" d="M0,60v360" style="stroke: rgb(0, 0, 0); stroke-opacity: 1; stroke-width: 1px;"/><path class="xgrid crisp" transform="translate(230.38,0)" d="M0,60v360" style="stroke: rgb(0, 0, 0); stroke-opacity: 1; stroke-width: 1px;"/><path class="xgrid crisp" transform="translate(469.63,0)" d="M0,60v360" style="stroke: rgb(0, 0, 0); stroke-opacity: 1; stroke-width: 1px;"/><path class="xgrid crisp" transform="translate(589.25,0)" d="M0,60v360" style="stroke: rgb(0, 0, 0); stroke-opacity: 1; stroke-width: 1px;"/></g><g class="y"><path class="ygrid crisp" transform="translate(0,389.79)" d="M80,0h540" style="stroke: rgb(0, 0, 0); stroke-opacity: 1; stroke-width: 1px;"/><path class="ygrid crisp" transform="translate(0,331.88)" d="M80,0h540" style="stroke: rgb(0, 0, 0); stroke-opacity: 1; stroke-width: 1px;"/><path class="ygrid crisp" transform="translate(0,273.96000000000004)" d="M80,0h540" style="stroke: rgb(0, 0, 0); stroke-opacity: 1; stroke-width: 1px;"/><path class="ygrid crisp" transform="translate(0,216.05)" d="M80,0h540" style="stroke: rgb(0, 0, 0); stroke-opacity: 1; stroke-width: 1px;"/><path class="ygrid crisp" transform="translate(0,158.14)" d="M80,0h540" style="stroke: rgb(0, 0, 0); stroke-opacity: 1; stroke-width: 1px;"/><path class="ygrid crisp" transform="translate(0,100.22999999999999)" d="M80,0h540" style="stroke: rgb(0, 0, 0); stroke-opacity: 1; stroke-width: 1px;"/></g></g><g class="zerolinelayer"><path class="xzl zl crisp" transform="translate(350,0)" d="M0,60v360" style="stroke: rgb(0, 0, 0); stroke-opacity: 1; stroke-width: 1.5px;"/></g><path class="xlines-below"/><path class="ylines-below"/><g class="overlines-below"/><g class="xaxislayer-below"/><g class="yaxislayer-below"/><g class="overaxes-below"/><g class="plot" transform="translate(80,60)" clip-path="url(#clip1cb026xyplot)"><g class="scatterlayer mlayer"><g class="trace scatter tracea0e6a4" style="stroke-miterlimit: 2; opacity: 1;"><g class="fills"/><g class="errorbars"><g class="errorbar"><path class="yerror" d="M26.75,18h8m-4,0V342m-4,0h8" style="vector-effect: non-scaling-stroke; stroke-width: 2px; stroke: rgb(0, 0, 0); stroke-opacity: 1;"/></g><g class="errorbar"><path class="yerror" d="M266,69.32h8m-4,0V279.57m-4,0h8" style="vector-effect: non-scaling-stroke; stroke-width: 2px; stroke: rgb(0, 0, 0); stroke-opacity: 1;"/></g><g class="errorbar"><path class="yerror" d="M505.25,69.3h8m-4,0V283.43m-4,0h8" style="vector-effect: non-scaling-stroke; stroke-width: 2px; stroke: rgb(0, 0, 0); stroke-opacity: 1;"/></g></g><g class="lines"/><g class="points"><path class="point" transform="translate(30.75,180)" d="M3,0A3,3 0 1,1 0,-3A3,3 0 0,1 3,0Z" style="opacity: 1; stroke-width: 0px; fill: rgb(0, 0, 0); fill-opacity: 1;"/><path class="point" transform="translate(270,174.45)" d="M3,0A3,3 0 1,1 0,-3A3,3 0 0,1 3,0Z" style="opacity: 1; stroke-width: 0px; fill: rgb(0, 0, 0); fill-opacity: 1;"/><path class="point" transform="translate(509.25,176.37)" d="M3,0A3,3 0 1,1 0,-3A3,3 0 0,1 3,0Z" style="opacity: 1; stroke-width: 0px; fill: rgb(0, 0, 0); fill-opacity: 1;"/></g><g class="text"/></g></g></g><g class="overplot"/><path class="xlines-above crisp" d="M78.5,420.75H620" style="fill: none; stroke-width: 1.5px; stroke: rgb(0, 0, 0); stroke-opacity: 1;"/><path class="ylines-above crisp" d="M79.25,60V420" style="fill: none; stroke-width: 1.5px; stroke: rgb(0, 0, 0); stroke-opacity: 1;"/><g class="overlines-above"/><g class="xaxislayer-above"><path class="xtick ticks crisp" d="M0,421.5v7" transform="translate(110.75,0)" style="stroke: rgb(0, 0, 0); stroke-opacity: 0; stroke-width: 0.1px;"/><path class="xtick ticks crisp" d="M0,421.5v7" transform="translate(230.38,0)" style="stroke: rgb(0, 0, 0); stroke-opacity: 0; stroke-width: 0.1px;"/><path class="xtick ticks crisp" d="M0,421.5v7" transform="translate(350,0)" style="stroke: rgb(0, 0, 0); stroke-opacity: 0; stroke-width: 0.1px;"/><path class="xtick ticks crisp" d="M0,421.5v7" transform="translate(469.63,0)" style="stroke: rgb(0, 0, 0); stroke-opacity: 0; stroke-width: 0.1px;"/><path class="xtick ticks crisp" d="M0,421.5v7" transform="translate(589.25,0)" style="stroke: rgb(0, 0, 0); stroke-opacity: 0; stroke-width: 0.1px;"/><g class="xtick"><text text-anchor="middle" x="0" y="445.3" transform="translate(110.75,0)" style="font-family: Arial; font-size: 14px; fill: rgb(0, 0, 0); fill-opacity: 1; white-space: pre; opacity: 1;">−1</text></g><g class="xtick"><text text-anchor="middle" x="0" y="445.3" style="font-family: Arial; font-size: 14px; fill: rgb(0, 0, 0); fill-opacity: 1; white-space: pre; opacity: 1;" transform="translate(230.38,0)">−0.5</text></g><g class="xtick"><text text-anchor="middle" x="0" y="445.3" style="font-family: Arial; font-size: 14px; fill: rgb(0, 0, 0); fill-opacity: 1; white-space: pre; opacity: 1;" transform="translate(350,0)">0</text></g><g class="xtick"><text text-anchor="middle" x="0" y="445.3" style="font-family: Arial; font-size: 14px; fill: rgb(0, 0, 0); fill-opacity: 1; white-space: pre; opacity: 1;" transform="translate(469.63,0)">0.5</text></g><g class="xtick"><text text-anchor="middle" x="0" y="445.3" style="font-family: Arial; font-size: 14px; fill: rgb(0, 0, 0); fill-opacity: 1; white-space: pre; opacity: 1;" transform="translate(589.25,0)">1</text></g></g><g class="yaxislayer-above"><path class="ytick ticks crisp" d="M78.5,0h-7" transform="translate(0,389.79)" style="stroke: rgb(0, 0, 0); stroke-opacity: 0; stroke-width: 0.1px;"/><path class="ytick ticks crisp" d="M78.5,0h-7" transform="translate(0,331.88)" style="stroke: rgb(0, 0, 0); stroke-opacity: 0; stroke-width: 0.1px;"/><path class="ytick ticks crisp" d="M78.5,0h-7" transform="translate(0,273.96000000000004)" style="stroke: rgb(0, 0, 0); stroke-opacity: 0; stroke-width: 0.1px;"/><path class="ytick ticks crisp" d="M78.5,0h-7" transform="translate(0,216.05)" style="stroke: rgb(0, 0, 0); stroke-opacity: 0; stroke-width: 0.1px;"/><path class="ytick ticks crisp" d="M78.5,0h-7" transform="translate(0,158.14)" style="stroke: rgb(0, 0, 0); stroke-opacity: 0; stroke-width: 0.1px;"/><path class="ytick ticks crisp" d="M78.5,0h-7" transform="translate(0,100.22999999999999)" style="stroke: rgb(0, 0, 0); stroke-opacity: 0; stroke-width: 0.1px;"/><g class="ytick"><text text-anchor="end" x="68.7" y="4.8999999999999995" transform="translate(0,389.79)" style="font-family: Arial; font-size: 14px; fill: rgb(0, 0, 0); fill-opacity: 1; white-space: pre; opacity: 1;">25</text></g><g class="ytick"><text text-anchor="end" x="68.7" y="4.8999999999999995" style="font-family: Arial; font-size: 14px; fill: rgb(0, 0, 0); fill-opacity: 1; white-space: pre; opacity: 1;" transform="translate(0,331.88)">30</text></g><g class="ytick"><text text-anchor="end" x="68.7" y="4.8999999999999995" style="font-family: Arial; font-size: 14px; fill: rgb(0, 0, 0); fill-opacity: 1; white-space: pre; opacity: 1;" transform="translate(0,273.96000000000004)">35</text></g><g class="ytick"><text text-anchor="end" x="68.7" y="4.8999999999999995" style="font-family: Arial; font-size: 14px; fill: rgb(0, 0, 0); fill-opacity: 1; white-space: pre; opacity: 1;" transform="translate(0,216.05)">40</text></g><g class="ytick"><text text-anchor="end" x="68.7" y="4.8999999999999995" style="font-family: Arial; font-size: 14px; fill: rgb(0, 0, 0); fill-opacity: 1; white-space: pre; opacity: 1;" transform="translate(0,158.14)">45</text></g><g class="ytick"><text text-anchor="end" x="68.7" y="4.8999999999999995" style="font-family: Arial; font-size: 14px; fill: rgb(0, 0, 0); fill-opacity: 1; white-space: pre; opacity: 1;" transform="translate(0,100.22999999999999)">50</text></g></g><g class="overaxes-above"/></g></g><g class="polarlayer"/><g class="smithlayer"/><g class="ternarylayer"/><g class="geolayer"/><g class="funnelarealayer"/><g class="pielayer"/><g class="iciclelayer"/><g class="treemaplayer"/><g class="sunburstlayer"/><g class="glimages"/><defs id="topdefs-1cb026"><g class="clips"/></defs><g class="layer-above"><g class="imagelayer"/><g class="shapelayer"><path data-index="0" fill-rule="evenodd" d="M80,420H620V60H80Z" style="opacity: 1; stroke: rgb(0, 0, 0); stroke-opacity: 1; fill: rgb(0, 0, 0); fill-opacity: 0; stroke-width: 1px;"/></g></g><g class="infolayer"><g class="g-gtitle"/><g class="g-xtitle"><text class="xtitle" x="350" y="473.1125" text-anchor="middle" style="font-family: Arial; font-size: 14px; fill: rgb(0, 0, 0); opacity: 1; font-weight: normal; white-space: pre;">x</text></g><g class="g-ytitle"><text class="ytitle" transform="rotate(-90,28.325000000000003,240)" x="28.325000000000003" y="240" text-anchor="middle" style="font-family: Arial; font-size: 14px; fill: rgb(0, 0, 0); opacity: 1; font-weight: normal; white-space: pre;">y</text></g></g></svg>