<svg class="main-svg" xmlns="http://www.w3.org/2000/svg" xmlns:xlink="http://www.w3.org/1999/xlink" width="700" height="500" style="" viewBox="0 0 700 500"><rect x="0" y="0" width="700" height="500" style="fill: rgb(255, 255, 255); fill-opacity: 1;"/><defs id="defs-6e24c3"><g class="clips"><clipPath id="clip6e24c3xyplot" class="plotclip"><rect width="540" height="320"/></clipPath><clipPath class="axesclip" id="clip6e24c3x"><rect x="80" y="0" width="540" height="500"/></clipPath><clipPath class="axesclip" id="clip6e24c3y"><rect x="0" y="100" width="700" height="320"/></clipPath><clipPath class="axesclip" id="clip6e24c3xy"><rect x="80" y="100" width="540" height="320"/></clipPath></g><g class="gradients"/><g class="patterns"/></defs><g class="bglayer"/><g class="layer-below"><g class="imagelayer"/><g class="shapelayer"/></g><g class="cartesianlayer"><g class="subplot xy"><g class="layer-subplot"><g class="shapelayer"/><g class="imagelayer"/></g><g class="minor-gridlayer"><g class="x"/><g class="y"/></g><g class="gridlayer"><g class="x"><path class="xgrid crisp" transform="translate(207.2,0)" d="M0,100v320" style="stroke: rgb(0, 0, 0); stroke-opacity: 1; stroke-width: 1px;"/><path class="xgrid crisp" transform="translate(302.4,0)" d="M0,100v320" style="stroke: rgb(0, 0, 0); stroke-opacity: 1; stroke-width: 1px;"/><path class="xgrid crisp" transform="translate(397.6,0)" d="M0,100v320" style="stroke: rgb(0, 0, 0); stroke-opacity: 1; stroke-width: 1px;"/><path class="xgrid crisp" transform="translate(492.8,0)" d="M0,100v320" style="stroke: rgb(0, 0, 0); stroke-opacity: 1; stroke-width: 1px;"/><path class="xgrid crisp" transform="translate(588,0)" d="M0,100v320" style="stroke: rgb(0, 0, 0); stroke-opacity: 1; stroke-width: 1px;"/></g><g class="y"><path class="ygrid crisp" transform="translate(0,340.47)" d="M80,0h540" style="stroke: rgb(0, 0, 0); stroke-opacity: 1; stroke-width: 1px;"/><path class="ygrid crisp" transform="translate(0,267.32)" d="M80,0h540" style="stroke: rgb(0, 0, 0); stroke-opacity: 1; stroke-width: 1px;"/><path class="ygrid crisp" transform="translate(0,194.16)" d="M80,0h540" style="stroke: rgb(0, 0, 0); stroke-opacity: 1; stroke-width: 1px;"/><path class="ygrid crisp" transform="translate(0,121)" d="M80,0h540" style="stroke: rgb(0, 0, 0); stroke-opacity: 1; stroke-width: 1px;"/></g></g><g class="zerolinelayer"><path class="xzl zl crisp" transform="translate(112,0)" d="M0,100v320" style="stroke: rgb(0, 0, 0); stroke-opacity: 1; stroke-width: 1.5px;"/><path class="yzl zl crisp" transform="translate(0,413.63)" d="M80,0h540" style="stroke: rgb(0, 0, 0); stroke-opacity: 1; stroke-width: 1.5px;"/></g><path class="xlines-below"/><path class="ylines-below"/><g class="overlines-below"/><g class="xaxislayer-below"/><g class="yaxislayer-below"/><g class="overaxes-below"/><g class="plot" transform="translate(80,100)" clip-path="url(#clip6e24c3xyplot)"><g class="scatterlayer mlayer"><g class="trace scatter trace204b69" style="stroke-miterlimit: 2; opacity: 1;"><g class="fills"/><g class="errorbars"/><g class="lines"/><g class="points"><path class="point" transform="translate(32,211.21)" d="M4,0A4,4 0 1,1 0,-4A4,4 0 0,1 4,0Z" style="opacity: 1; stroke-width: 0px; fill: rgb(0, 0, 0); fill-opacity: 1;"/><path class="point" transform="translate(127.2,299)" d="M4,0A4,4 0 1,1 0,-4A4,4 0 0,1 4,0Z" style="opacity: 1; stroke-width: 0px; fill: rgb(0, 0, 0); fill-opacity: 1;"/><path class="point" transform="translate(222.4,255.11)" d="M4,0A4,4 0 1,1 0,-4A4,4 0 0,1 4,0Z" style="opacity: 1; stroke-width: 0px; fill: rgb(0, 0, 0); fill-opacity: 1;"/><path class="point" transform="translate(317.6,181.95)" d="M4,0A4,4 0 1,1 0,-4A4,4 0 0,1 4,0Z" style="opacity: 1; stroke-width: 0px; fill: rgb(0, 0, 0); fill-opacity: 1;"/><path class="point" transform="translate(412.8,79.53)" d="M4,0A4,4 0 1,1 0,-4A4,4 0 0,1 4,0Z" style="opacity: 1; stroke-width: 0px; fill: rgb(0, 0, 0); fill-opacity: 1;"/><path class="point" transform="translate(508,21)" d="M4,0A4,4 0 1,1 0,-4A4,4 0 0,1 4,0Z" style="opacity: 1; stroke-width: 0px; fill: rgb(0, 0, 0); fill-opacity: 1;"/></g><g class="text"/></g></g></g><g class="overplot"/><path class="xlines-above crisp" d="M78.5,420.75H620" style="fill: none; stroke-width: 1.5px; stroke: rgb(0, 0, 0); stroke-opacity: 1;"/><path class="ylines-above crisp" d="M79.25,100V420" style="fill: none; stroke-width: 1.5px; stroke: rgb(0, 0, 0); stroke-opacity: 1;"/><g class="overlines-above"/><g class="xaxislayer-above"><path class="xtick ticks crisp" d="M0,421.5v7" transform="translate(112,0)" style="stroke: rgb(255, 255, 255); stroke-opacity: 1; stroke-width: 0.1px;"/><path class="xtick ticks crisp" d="M0,421.5v7" transform="translate(207.2,0)" style="stroke: rgb(255, 255, 255); stroke-opacity: 1; stroke-width: 0.1px;"/><path class="xtick ticks crisp" d="M0,421.5v7" transform="translate(302.4,0)" style="stroke: rgb(255, 255, 255); stroke-opacity: 1; stroke-width: 0.1px;"/><path class="xtick ticks crisp" d="M0,421.5v7" transform="translate(397.6,0)" style="stroke: rgb(255, 255, 255); stroke-opacity: 1; stroke-width: 0.1px;"/><path class="xtick ticks crisp" d="M0,421.5v7" transform="translate(492.8,0)" style="stroke: rgb(255, 255, 255); stroke-opacity: 1; stroke-width: 0.1px;"/><path class="xtick ticks crisp" d="M0,421.5v7" transform="translate(588,0)" style="stroke: rgb(255, 255, 255); stroke-opacity: 1; stroke-width: 0.1px;"/><g class="xtick"><text text-anchor="middle" x="0" y="445.3" transform="translate(112,0)" style="font-family: Arial; font-size: 14px; fill: rgb(0, 0, 0); fill-opacity: 1; white-space: pre; opacity: 1;">0</text></g><g class="xtick"><text text-anchor="middle" x="0" y="445.3" style="font-family: Arial; font-size: 14px; fill: rgb(0, 0, 0); fill-opacity: 1; white-space: pre; opacity: 1;" transform="translate(207.2,0)">1</text></g><g class="xtick"><text text-anchor="middle" x="0" y="445.3" style="font-family: Arial; font-size: 14px; fill: rgb(0, 0, 0); fill-opacity: 1; white-space: pre; opacity: 1;" transform="translate(302.4,0)">2</text></g><g class="xtick"><text text-anchor="middle" x="0" y="445.3" style="font-family: Arial; font-size: 14px; fill: rgb(0, 0, 0); fill-opacity: 1; white-space: pre; opacity: 1;" transform="translate(397.6,0)">3</text></g><g class="xtick"><text text-anchor="middle" x="0" y="445.3" style="font-family: Arial; font-size: 14px; fill: rgb(0, 0, 0); fill-opacity: 1; white-space: pre; opacity: 1;" transform="translate(492.8,0)">4</text></g><g class="xtick"><text text-anchor="middle" x="0" y="445.3" style="font-family: Arial; font-size: 14px; fill: rgb(0, 0, 0); fill-opacity: 1; white-space: pre; opacity: 1;" transform="translate(588,0)">5</text></g></g><g class="yaxislayer-above"><path class="ytick ticks crisp" d="M78.5,0h-7" transform="translate(0,413.63)" style="stroke: rgb(255, 255, 255); stroke-opacity: 1; stroke-width: 0.1px;"/><path class="ytick ticks crisp" d="M78.5,0h-7" transform="translate(0,340.47)" style="stroke: rgb(255, 255, 255); stroke-opacity: 1; stroke-width: 0.1px;"/><path class="ytick ticks crisp" d="M78.5,0h-7" transform="translate(0,267.32)" style="stroke: rgb(255, 255, 255); stroke-opacity: 1; stroke-width: 0.1px;"/><path class="ytick ticks crisp" d="M78.5,0h-7" transform="translate(0,194.16)" style="stroke: rgb(255, 255, 255); stroke-opacity: 1; stroke-width: 0.1px;"/><path class="ytick ticks crisp" d="M78.5,0h-7" transform="translate(0,121)" style="stroke: rgb(255, 255, 255); stroke-opacity: 1; stroke-width: 0.1px;"/><g class="ytick"><text text-anchor="end" x="68.7" y="4.8999999999999995" transform="translate(0,413.63)" style="font-family: Arial; font-size: 14px; fill: rgb(0, 0, 0); fill-opacity: 1; white-space: pre; opacity: 1;">0</text></g><g class="ytick"><text text-anchor="end" x="68.7" y="4.8999999999999995" style="font-family: Arial; font-size: 14px; fill: rgb(0, 0, 0); fill-opacity: 1; white-space: pre; opacity: 1;" transform="translate(0,340.47)">5</text></g><g class="ytick"><text text-anchor="end" x="68.7" y="4.8999999999999995" style="font-family: Arial; font-size: 14px; fill: rgb(0, 0, 0); fill-opacity: 1; white-space: pre; opacity: 1;" transform="translate(0,267.32)">10</text></g><g class="ytick"><text text-anchor="end" x="68.7" y="4.8999999999999995" style="font-family: Arial; font-size: 14px; fill: rgb(0, 0, 0); fill-opacity: 1; white-space: pre; opacity: 1;" transform="translate(0,194.16)">15</text></g><g class="ytick"><text text-anchor="end" x="68.7" y="4.8999999999999995" style="font-family: Arial; font-size: 14px; fill: rgb(0, 0, 0); fill-opacity: 1; white-space: pre; opacity: 1;" transform="translate(0,121)">20</text></g></g><g class="overaxes-above"/></g></g><g class="polarlayer"/><g class="smithlayer"/><g class="ternarylayer"/><g class="geolayer"/><g class="funnelarealayer"/><g class="pielayer"/><g class="iciclelayer"/><g class="treemaplayer"/><g class="sunburstlayer"/><g class="glimages"/><defs id="topdefs-6e24c3"><g class="clips"/></defs><g class="layer-above"><g class="imagelayer"/><g class="shapelayer"><path data-index="0" fill-rule="evenodd" d="M80,420H620V100H80Z" style="opacity: 1; stroke: rgb(0, 0, 0); stroke-opacity: 1; fill: rgb(0, 0, 0); fill-opacity: 0; stroke-width: 1px;"/></g></g><g class="infolayer"><g class="g-gtitle"><text class="gtitle" x="35" y="50" text-anchor="start" dy="0em" style="font-family: Arial; font-size: 20px; fill: rgb(0, 0, 0); opacity: 1; font-weight: normal; white-space: pre;">test</text></g><g class="g-xtitle"><text class="xtitle" x="350" y="473.1125" text-anchor="middle" style="font-family: Arial; font-size: 14px; fill: rgb(0, 0, 0); opacity: 1; font-weight: normal; white-space: pre;">x</text></g><g class="g-ytitle"><text class="ytitle" transform="rotate(-90,28.325000000000003,260)" x="28.325000000000003" y="260" text-anchor="middle" style="font-family: Arial; font-size: 14px; fill: rgb(0, 0, 0); opacity: 1; font-weight: normal; white-space: pre;">y</text></g></g></svg>